<svg width="48" height="48" viewBox="0 0 48 48" fill="none" xmlns="http://www.w3.org/2000/svg">
<path fill-rule="evenodd" clip-rule="evenodd" d="M16.043 27.6486L12.3467 22.7892C11.9028 22.2056 11.069 22.0945 10.4877 22.5414L9.86005 23.024C9.28536 23.4659 9.17345 24.288 9.60911 24.8675L11.5719 27.478C12.7816 29.4574 12.9082 32.2313 11.2862 34.2932L11.2879 34.2912C10.8819 34.7756 10.3606 35.2348 9.70233 35.6513C7.45618 37.266 4.30874 37.0625 2.29026 35.0443L1.68299 34.4372C-0.344131 32.4104 -0.567523 29.1996 1.1594 26.9116L11.1383 13.6906C11.9532 12.611 13.0641 11.9078 14.2625 11.5943C16.5499 10.8373 19.1607 11.5821 20.6778 13.621L30.6745 27.0551C32.5691 29.6012 32.041 33.2011 29.4949 35.0957L29.0138 35.4537C26.4677 37.3483 22.8678 36.8202 20.9732 34.2741L16.043 27.6486Z" fill="#0228F3"/>
<path fill-rule="evenodd" clip-rule="evenodd" d="M28.7522 12.4239C26.4838 14.1164 26.017 17.3273 27.7095 19.5957C29.402 21.8641 32.613 22.331 34.8813 20.6384C37.1497 18.9459 37.6166 15.735 35.9241 13.4666C34.2316 11.1982 31.0206 10.7313 28.7522 12.4239ZM35.929 22.3692C33.6606 24.0617 33.1937 27.2726 34.8863 29.541L38.7674 34.7428C40.4599 37.0112 43.6709 37.478 45.9393 35.7855C48.2077 34.093 48.6745 30.882 46.982 28.6136L43.1008 23.4119C41.4083 21.1435 38.1974 20.6767 35.929 22.3692Z" fill="#00E3FA"/>
</svg>
